<svg xmlns="http://www.w3.org/2000/svg" viewBox="0 0 165.52 105.97">
  <path fill="#231F20" d="M150.7 0h-136c-8.1 0-14.7 6.6-14.7 14.7v76.6c0 8.1 6.6 14.7 14.7 14.7h136c8.1 0 14.7-6.6 14.7-14.7v-76.6c.1-8.1-6.5-14.7-14.7-14.7zm-45.1 33.3c2.1-2.5 3.4-5.8 3-9.2-2.9.2-6.5 2-8.5 4.4-1.9 2.2-3.5 5.6-3 8.9 3.2.2 6.5-1.7 8.5-4.1zm8.5 21.7c-4.7-6-11.9-6.7-14.5-6.8-6.7-.4-12.9 4-16.3 4-3.4 0-8.7-3.8-14.3-3.7-7.3.1-14.1 4.3-17.8 10.9-7.6 13.2-1.9 32.7 5.4 43.4 3.6 5.2 7.9 11.1 13.6 10.9 5.4-.2 7.5-3.5 14-3.5s8.4 3.5 14.2 3.4c5.8-.1 9.5-5.3 13.1-10.6 4.1-6 5.8-11.8 5.9-12.1-.1-.1-11.3-4.3-11.4-17.2-.1-10.8 8.8-15.9 9.1-16.1-5-7.3-12.7-8.1-15.4-8.3l.4-.3z"/>
</svg> 