<svg xmlns="http://www.w3.org/2000/svg" viewBox="0 0 437 174">
  <path fill="#5F6368" d="M207.2 84.6v50.8h-16.1V10h42.7c10.3 0 19.2 3.7 26.6 11s11.1 16.3 11.1 26.8c0 10.7-3.7 19.6-11.1 26.8-7.4 7.2-16.3 10.8-26.6 10.8h-26.6zm0-59.2v43.8h27c7 0 13-2.3 18-6.9 5-4.6 7.4-10.3 7.4-17.1 0-6.6-2.5-12.3-7.4-17-5-4.6-11-6.9-18-6.9h-27zm102.7 111.8c-9.7 0-17.8-3.2-24.3-9.5-6.5-6.3-9.7-14.2-9.7-23.6 0-9.3 3.2-17.2 9.7-23.6 6.5-6.3 14.6-9.5 24.3-9.5 9.8 0 17.9 3.2 24.3 9.5 6.4 6.3 9.6 14.2 9.6 23.6 0 9.3-3.2 17.2-9.6 23.6-6.4 6.3-14.5 9.5-24.3 9.5zm0-12.5c5.7 0 10.4-1.9 14.1-5.7 3.7-3.8 5.5-8.8 5.5-14.9s-1.8-11-5.5-14.9c-3.7-3.8-8.4-5.7-14.1-5.7s-10.4 1.9-14.1 5.7c-3.7 3.8-5.5 8.8-5.5 14.9s1.8 11 5.5 14.9c3.7 3.8 8.4 5.7 14.1 5.7zm80.8-44.9c7.5 0 13.5 2.5 17.9 7.4 4.4 4.9 6.6 11.7 6.6 20.4v39.5h-15.4V108c0-5.3-1.3-9.3-3.8-12.2-2.5-2.9-6.1-4.3-10.7-4.3-4.7 0-8.5 1.6-11.4 4.7-2.9 3.1-4.3 7.7-4.3 13.7v25.5h-15.4V72.5h15.4v7.5c2.5-2.7 5.5-4.8 8.9-6.2 3.3-1.5 7-2.2 11-2.2l.8.2zm45.3-18.8c-2.7 0-5-0.9-6.8-2.7-1.8-1.8-2.7-4.1-2.7-6.8s0.9-5 2.7-6.8c1.8-1.8 4.1-2.7 6.8-2.7s5 0.9 6.8 2.7c1.8 1.8 2.7 4.1 2.7 6.8s-0.9 5-2.7 6.8c-1.8 1.8-4.1 2.7-6.8 2.7zm7.7 105.5h-15.4V72.5h15.4v93.8z"/>
  <path fill="#4285F4" d="M35.3 41.8c0-2.9-0.2-5.7-0.7-8.4H18v15.9h9.7c-0.4 2.3-1.7 4.2-3.6 5.5v4.6h5.8c3.4-3.1 5.4-7.7 5.4-13.2z"/>
  <path fill="#34A853" d="M18 54.4c-4.8 0-8.9-3.2-10.4-7.5H1.8v4.7C4.7 58 10.9 62 18 62c4.9 0 9-1.6 12-4.6l-5.8-4.6c-1.6 1.1-3.7 1.6-6.2 1.6z"/>
  <path fill="#FBBC04" d="M7.6 46.9c0-1.3 0.2-2.6 0.6-3.8V38.4H1.8c-1.2 2.5-1.8 5.3-1.8 8.5s0.6 6 1.8 8.5l5.8-4.7c-0.4-1.2-0.6-2.5-0.6-3.8z"/>
  <path fill="#EA4335" d="M18 35.6c2.7 0 5.1 0.9 7 2.7l5.1-5.1C26.9 30.2 22.8 28.6 18 28.6c-7.1 0-13.3 4-16.2 10.4l5.8 4.7c1.5-4.3 5.6-7.5 10.4-7.5z"/>
</svg> 