<svg xmlns="http://www.w3.org/2000/svg" viewBox="0 0 1000.046 323.653">
  <path fill="#00579f" d="M433.398 318.417l47.22-276.49h75.453l-47.167 276.49zM711.134 147.517c-15.11-5.658-24.313-9.434-24.313-15.197 0-5.075 5.87-10.44 18.553-10.44 10.613-.16 18.34 2.126 24.367 4.536l2.925.934 4.376-25.856c-6.458-2.393-16.546-4.959-29.154-4.959-32.183 0-54.83 16.233-55.038 39.476-.213 17.165 16.181 26.756 28.512 32.468 12.705 5.87 16.968 9.592 16.968 14.826-.107 8.003-10.166 11.672-19.599 11.672-13.066 0-20.105-1.806-30.822-6.298l-4.27-1.913-4.59 26.915c7.619 3.34 21.752 6.248 36.435 6.405 34.416 0 56.796-16.072 57.062-40.947.161-13.599-8.536-23.982-27.413-32.528M834.68 318.417h-58.528l.638-3.977c-11.561-31.637-35.394-65.695-43.333-79.294l-.426 2.44-37.258 80.83h-61.774L697.67 41.928h46.435l-15.733 91.84h.742c8.588-12.542 23.298-20.492 42.22-20.492 10.006 0 18.553 1.87 25.279 5.658-2.288 12.435-4.588 24.975-6.352 36.144-4.217-1.06-8.856-1.701-13.815-1.701-31.015 0-42.995 24.74-48.334 45.817l-16.181 119.223h46.752M383.755 318.417l-36.301-91.84c-6.14-15.732-12.705-32.897-17.826-46.02l-1.169 5.552c.053-.213-15.253-79.827-18.766-99.843h-49.572l74.851 276.49h48.783"/></svg> 